# xmcd
#
# Track frame offsets: 
#        150
#        14933
#        27836
#        42522
#        55291
#        69097
#        81330
#        94569
#        109498
#        122606
#        135789
#        150228
#        164471
#        176837
#        189151
#        202738
#        215559
#        227203
#        241116
#        253882
#
# Disc length: 3563 seconds
#
# Revision: 2
# Processed by: cddbd v1.5.2PL0 Copyright (c) Steve Scherf et al.
# Submitted via: ExactAudioCopy v1.0b6
#
DISCID=0b0de914
DTITLE=Miles Davis - The Complete Recordings 1943-1960
DYEAR=2000
DGENRE=Jazz
TTITLE0=That's The Stuff You Gotta Watch
TTITLE1=Pointless Mama Blues
TTITLE2=Deep Sea Blues
TTITLE3=Bring It On Home
TTITLE4=Oo Bo Sh'bam
TTITLE5=I Love The Loveliness Of You
TTITLE6=In The Still Of The Night
TTITLE7=Jelly Jelly
TTITLE8=Don't Sing Me The Blues
TTITLE9=Don't Explain To Me Baby
TTITLE10=Baby, Won't You Make Up
TTITLE11=I've Always Got The Blues
TTITLE12=For Europeans Only
TTITLE13=Big Dog
TTITLE14=You Left Me All Alone
TTITLE15=Jivin' With Jack The Bellboy
TTITLE16=Bean-A-Re-Bop
TTITLE17=Isn't It Romantic
TTITLE18=The Way You Look Tonight
TTITLE19=Phantomesque
EXTD=
EXTT0=
EXTT1=
EXTT2=
EXTT3=
EXTT4=
EXTT5=
EXTT6=
EXTT7=
EXTT8=
EXTT9=
EXTT10=
EXTT11=
EXTT12=
EXTT13=
EXTT14=
EXTT15=
EXTT16=
EXTT17=
EXTT18=
EXTT19=
PLAYORDER=
